<svg width="50" height="50" viewBox="0 0 50 50" fill="none" xmlns="http://www.w3.org/2000/svg"><path d="M25 50C38.8071 50 50 38.8071 50 25C50 11.1929 38.8071 0 25 0C11.1929 0 0 11.1929 0 25C0 38.8071 11.1929 50 25 50Z" fill="#B7ECFF"></path><path d="M14.5425 17.1613C21.2388 11.1688 31.2625 14.2825 35.8975 18.3725C36.625 19.015 38.2138 20.4488 39.1563 22.865C40.8788 27.2788 39.3813 32.245 37.3013 34.9788C31.7863 42.2275 15.465 42.605 10.8325 33.9688C8.09128 28.8588 9.85378 21.3575 14.5425 17.1613Z" fill="white"></path><path d="M34.795 15.5712C35.17 14.62 35.3875 13.6287 35.4912 12.6125C35.5237 12.2937 35.5225 11.975 35.4912 11.6562C35.455 11.4875 35.4375 11.3125 35.3787 11.1525C35.2275 10.7425 35.0037 10.3912 34.5412 10.2725C34.4937 10.2487 34.4437 10.2525 34.395 10.2662C34.3937 10.2725 34.395 10.2762 34.3925 10.2825C34.2175 10.2362 34.0425 10.2487 33.8675 10.2737C33.695 10.3012 33.525 10.3425 33.365 10.4125C32.0687 10.9812 31.0062 11.8162 30.3287 13.0887C30.2575 13.2212 30.1837 13.3525 30.1012 13.4787C29.8837 13.8062 29.5737 13.9562 29.185 13.9012C28.8075 13.8475 28.5512 13.6275 28.435 13.26C28.2962 12.8237 28.4887 12.4475 28.69 12.0912C28.8625 11.7862 29.03 11.485 29.1337 11.15C29.34 10.4875 29.4987 9.81999 29.3662 9.11874C29.295 8.73874 29.08 8.49249 28.69 8.41624C28.5612 8.39624 28.4325 8.38124 28.305 8.42624C28.305 8.42874 28.305 8.42999 28.305 8.43249C28.3012 8.42124 28.2987 8.41124 28.2925 8.39874C28.2262 8.36124 28.1537 8.36374 28.0812 8.36499C27.5362 8.41499 27.0687 8.66749 26.6087 8.93499C25.8075 9.39999 25.1287 10.0112 24.5 10.6875C23.8987 11.3362 23.385 12.045 22.9512 12.8125C22.7675 13.1362 22.6575 13.4975 22.4712 13.82C22.2275 14.2437 21.7637 14.41 21.3562 14.2462C20.975 14.0925 20.7087 13.5862 20.8725 13.1387C20.9475 12.9337 21.0475 12.735 21.0812 12.515C21.0987 12.4637 21.1112 12.4087 21.135 12.3612C21.4575 11.705 21.6137 11.0037 21.7 10.2837C21.73 9.99624 21.7275 9.70874 21.7 9.42124C21.6787 9.24749 21.6387 9.07874 21.5725 8.91624C21.415 8.53249 21.1325 8.32874 20.715 8.31749C20.5562 8.31249 20.3987 8.32124 20.2437 8.35624C19.4025 8.54374 18.7337 9.03124 18.1187 9.59999C17.0062 10.6287 16.185 11.8725 15.515 13.22C14.9162 14.4225 14.4462 15.6712 14.2975 17.0175C14.2562 17.3925 14.1575 17.71 13.85 17.9412C13.9275 18.005 14.005 18.0687 14.0825 18.1325C14.1925 18.2762 14.3325 18.375 14.5125 18.4137C14.5562 18.4712 14.62 18.495 14.6862 18.515C14.785 18.27 14.9612 18.1012 15.1862 17.9637C15.9837 17.4762 16.85 17.1512 17.735 16.875C19.8737 16.2087 22.07 15.8925 24.3062 15.8425C24.3812 15.8075 24.4612 15.8237 24.54 15.8237C25.1387 15.82 25.7387 15.8287 26.3375 15.8187C26.3425 15.805 26.345 15.795 26.3475 15.7825C26.35 15.7887 26.3537 15.7937 26.355 15.8012C26.38 15.8325 26.425 15.8175 26.4537 15.8425C26.785 15.8612 27.115 15.88 27.4462 15.9C27.6012 15.93 27.755 15.9287 27.91 15.9012C27.9112 15.915 27.9162 15.9287 27.9262 15.94C28.8137 16.0425 29.7012 16.1487 30.58 16.3212C31.7925 16.5587 32.9925 16.8337 34.1475 17.2862C34.455 17.4062 34.6725 17.5962 34.81 17.89C35.1262 17.61 35.43 17.3187 35.6187 16.9312C34.8537 16.7662 34.5362 16.23 34.795 15.575V15.5712Z" fill="#FFEDAA"></path><path d="M21.49 23.5975C20.98 23.6025 20.56 23.2 20.55 22.6975C20.54 22.1775 20.9487 21.7513 21.4625 21.745C21.9787 21.7388 22.4012 22.155 22.4037 22.6713C22.4062 23.1775 21.995 23.5938 21.49 23.5988V23.5975Z" fill="#01AAD9"></path><path d="M24.3101 40.0025C24.5651 40.005 24.8201 40.0075 25.0751 40.01C25.0401 40.135 24.9313 40.1213 24.8426 40.1238C24.3763 40.1325 23.9113 40.1325 23.4451 40.1238C23.3563 40.1225 23.2476 40.1338 23.2113 40.0113C23.5138 40.0088 23.8176 40.005 24.1201 40.0025C24.1838 40.0025 24.2463 40.0025 24.3101 40.0025Z" fill="#96DCEF"></path><path d="M37.3925 11.6113C37.365 11.93 37.4425 12.2525 37.3512 12.5675C37.2212 12.43 37.2712 12.2575 37.2725 12.1C37.275 11.9025 37.21 11.6938 37.3475 11.5125C37.3625 11.53 37.3762 11.5463 37.3912 11.5638C37.3912 11.58 37.3912 11.595 37.3925 11.6113Z" fill="#8AD8ED"></path><path d="M25.2125 22.1212C25.2125 22.28 25.2138 22.4387 25.215 22.5975C25.135 22.4387 25.1375 22.28 25.2125 22.1212Z" fill="#81D5EC"></path><path d="M25.7413 39.965C25.5688 40.0362 25.39 40.0112 25.2125 40.0037C25.2163 39.99 25.22 39.9762 25.225 39.9637C25.3975 39.9637 25.57 39.9637 25.7413 39.965Z" fill="#83D6EC"></path><path d="M33.6775 19.0825C33.8387 19.0825 34 19.0825 34.1612 19.0837C34 19.1575 33.8387 19.1587 33.6775 19.0825Z" fill="#69CDE9"></path><path d="M21.7001 10.2825C21.7001 9.99498 21.7001 9.70748 21.7001 9.41998C21.7701 9.70748 21.7713 9.99498 21.7001 10.2825Z" fill="#7ECBC2"></path><path d="M26.355 15.7975L26.4538 15.8388C25.7375 15.8388 25.0213 15.8388 24.3063 15.8388C24.3713 15.7713 24.455 15.7975 24.53 15.7975C25.1388 15.795 25.7463 15.7975 26.355 15.7975Z" fill="#75C9C3"></path><path d="M27.4475 15.8962C27.6025 15.8962 27.7588 15.8962 27.9138 15.8975C27.9188 15.91 27.9238 15.9237 27.9275 15.9375C27.7663 15.9437 27.6025 15.9687 27.4475 15.8962Z" fill="#7ECBC2"></path><path d="M28.6913 8.41625C28.5626 8.42 28.4351 8.4225 28.3063 8.42625C28.2263 8.42375 28.1451 8.42125 28.0651 8.41875C28.2738 8.345 28.4826 8.35 28.6926 8.4175L28.6913 8.41625Z" fill="#86CDC0"></path><path d="M13.8513 17.9387C14.1926 17.8287 14.2813 17.54 14.3276 17.2375C14.3726 16.94 14.4013 16.64 14.4626 16.345C14.7201 15.11 15.1788 13.9475 15.7751 12.8412C16.4863 11.5212 17.3401 10.3075 18.5088 9.34375C19.0388 8.90625 19.6076 8.53375 20.3013 8.41C21.0738 8.27375 21.4513 8.53 21.6238 9.29375C21.6363 9.3475 21.6438 9.4025 21.6588 9.45625C21.6888 9.72625 21.6976 9.99625 21.6526 10.265C21.5313 10.9725 21.4151 11.6825 21.0788 12.33C21.0501 12.3862 21.0313 12.4487 21.0676 12.5112C21.0726 12.5125 21.0763 12.5125 21.0813 12.5137C20.9463 12.6762 20.9038 12.8812 20.8363 13.0737C20.6526 13.6025 20.8576 14.0987 21.3363 14.3012C21.8051 14.5 22.3088 14.285 22.5551 13.78C22.7351 13.41 22.8913 13.0275 23.0976 12.6725C23.6663 11.695 24.3663 10.8175 25.2076 10.06C26.0413 9.31 26.9238 8.635 28.0663 8.415C28.2726 8.36 28.4663 8.4525 28.6676 8.46375C29.1051 8.60625 29.3163 8.86375 29.3363 9.30875C29.3801 10.29 29.1776 11.2125 28.6376 12.0462C28.4788 12.2912 28.3988 12.5662 28.3538 12.8462C28.2951 13.2162 28.4213 13.53 28.7238 13.7675C29.1226 14.08 29.8863 14.055 30.2026 13.4175C30.5588 12.7 31.0326 12.08 31.6463 11.5587C32.3138 10.9937 33.0226 10.52 33.8876 10.32C34.0926 10.28 34.2988 10.2775 34.5051 10.32C34.8576 10.4187 35.0851 10.6562 35.2451 10.9737C35.3601 11.2025 35.3951 11.455 35.4513 11.7C35.4763 12 35.4926 12.3012 35.4426 12.6012C35.3026 13.6275 35.0976 14.6375 34.7176 15.6062C34.6351 15.8175 34.6388 16.0425 34.6876 16.26C34.7813 16.6787 35.2101 16.9787 35.6188 16.9262C36.0901 16.8725 36.4126 16.6387 36.5501 16.1712C36.5988 16.005 36.6801 15.8475 36.7301 15.6812C36.9501 14.9537 37.1501 14.2212 37.2413 13.4637C37.2788 13.165 37.3151 12.8662 37.3526 12.5662C37.3513 12.215 37.3501 11.8625 37.3488 11.5112C37.2751 10.9412 37.1313 10.3937 36.8326 9.89625C36.2713 8.96 35.4563 8.42875 34.3538 8.385C33.4288 8.3475 32.5988 8.66625 31.8063 9.10625C31.6326 9.2025 31.4626 9.3075 31.2776 9.41625C31.1813 7.615 30.0651 6.7075 28.8326 6.56625C28.5451 6.49 28.2576 6.4875 27.9701 6.56375C27.1213 6.6425 26.3688 6.98625 25.6501 7.41375C24.9326 7.84 24.2876 8.36375 23.6901 8.94625C23.6513 8.98375 23.6001 9.04375 23.5613 9.03875C23.4826 9.03 23.5013 8.93875 23.4901 8.8825C23.4438 8.64 23.3726 8.405 23.2738 8.18C22.9088 7.35 22.3113 6.7825 21.4176 6.55625C20.4601 6.31375 19.5651 6.5275 18.7051 6.94625C17.5801 7.49375 16.6701 8.31375 15.8851 9.26875C14.2126 11.3025 13.0701 13.6 12.5451 16.1887C12.4726 16.5437 12.3926 16.9075 12.4326 17.27C12.4913 17.8012 13.0901 18.3162 13.8526 17.9375L13.8513 17.9387Z" fill="#00AAD9"></path><path d="M19.6963 25.7775C19.1963 25.5063 18.6413 25.6538 18.385 26.125C18.1325 26.59 18.3038 27.1263 18.795 27.4C20.1925 28.1788 21.6963 28.56 23.2913 28.5938C23.8238 28.6075 24.3538 28.5675 24.8763 28.4863C26.7063 28.2038 28.3488 27.4913 29.775 26.2988C30.195 25.9475 30.2613 25.375 29.9225 24.9675C29.5863 24.5625 29.0063 24.5238 28.585 24.8775C26.0925 26.9725 22.5525 27.3313 19.695 25.7788L19.6963 25.7775Z" fill="#00AAD9"></path><path d="M26.0151 23.2737C26.5063 23.33 26.9488 22.9812 27.0251 22.5025C27.1001 22.0287 26.7951 21.5662 26.3338 21.4575C25.8276 21.3375 25.3826 21.6012 25.2126 22.1212C25.1788 22.28 25.1751 22.4387 25.2151 22.5975C25.3363 22.995 25.6076 23.2262 26.0151 23.2737Z" fill="#00AAD9"></path><path d="M33.6776 19.0825C33.8388 19.115 34.0001 19.1125 34.1613 19.0837C34.7263 18.8725 34.9051 18.545 34.8113 17.8862C34.7776 17.56 34.5551 17.3925 34.2838 17.2725C33.8776 17.0937 33.4601 16.9462 33.0338 16.8262C31.3563 16.3537 29.6501 16.035 27.9138 15.875C27.7513 15.8675 27.5851 15.8912 27.4263 15.8375C27.0938 15.8237 26.7651 15.7537 26.4301 15.7737C25.7388 15.7775 25.0476 15.7762 24.3563 15.775C23.5313 15.76 22.7138 15.8512 21.8963 15.9362C20.9826 16.0312 20.0788 16.1962 19.1838 16.405C17.9076 16.7025 16.6651 17.095 15.4976 17.7025C15.2438 17.835 14.9988 17.98 14.8051 18.1962C14.7276 18.2837 14.6376 18.3725 14.6876 18.51C14.5838 18.9587 14.7063 19.3325 15.0326 19.565C15.3663 19.8025 15.7476 19.7925 16.1426 19.5487C16.3238 19.4362 16.5126 19.3337 16.7051 19.2437C17.9863 18.6387 19.3488 18.2962 20.7313 18.0362C21.7863 17.8375 22.8576 17.7725 23.9276 17.6925C24.1513 17.6912 24.3738 17.69 24.5976 17.6887L24.5938 17.705C24.9588 17.705 25.3251 17.7025 25.6901 17.7025C25.9301 17.6987 26.1688 17.695 26.4088 17.6925C27.0013 17.7137 27.5913 17.765 28.1801 17.8312C29.6738 17.9987 31.1488 18.2662 32.5901 18.7025C32.9576 18.8137 33.3163 18.9537 33.6776 19.0812V19.0825ZM24.5976 17.6575C24.5976 17.6575 24.5976 17.6575 24.5976 17.6587C24.5976 17.6587 24.5976 17.6587 24.5976 17.6575Z" fill="#00AAD9"></path><path d="M37.2388 21.9437C36.9551 21.4312 36.5851 20.9737 36.3026 20.4612C36.2963 20.4737 36.2913 20.4862 36.2888 20.5C36.2126 20.52 36.1326 20.53 36.0613 20.5612C34.6038 21.19 33.4388 22.1662 32.5863 23.5062C31.8938 24.5937 31.4563 25.7737 31.2838 27.0587C31.1688 27.9125 31.1551 28.7662 31.2688 29.6125C31.4463 30.9275 31.8951 32.1525 32.6338 33.265C33.2726 34.2275 34.0551 35.04 35.0526 35.6362C35.0563 35.6325 35.0601 35.6287 35.0638 35.625C35.5326 35.1875 35.9363 34.6937 36.3151 34.1787C37.7201 32.2662 38.5313 30.14 38.6301 27.7562C38.7163 25.6875 38.2413 23.755 37.2388 21.9437Z" fill="#FFAFB1"></path><path d="M15.045 24.095C14.1638 23.2975 13.1488 22.7662 11.9938 22.495L11.99 22.5025C11.7713 22.815 11.6213 23.1637 11.47 23.5112C10.6425 25.3962 10.345 27.3625 10.6 29.4062C10.85 31.4112 11.625 33.2 12.8488 34.7975C13.3013 35.3887 13.795 35.945 14.3713 36.4212C14.3763 36.4362 14.3863 36.445 14.4025 36.4475C14.6063 36.285 14.83 36.1487 15.0175 35.965C16.6663 34.3612 17.4613 32.3837 17.545 30.1112C17.5738 29.3287 17.4713 28.5487 17.2488 27.7937C16.83 26.375 16.16 25.1037 15.0463 24.0937L15.045 24.095Z" fill="#FFAFB1"></path><path d="M35.4912 12.6125C35.4912 12.2938 35.4912 11.975 35.4912 11.6562C35.5675 11.975 35.5625 12.2938 35.4912 12.6125Z" fill="#86CDC0"></path><path d="M34.3938 10.2837C34.2188 10.2812 34.0426 10.2775 33.8676 10.275C34.0926 10.1987 34.3163 10.2 34.5413 10.2725C34.4926 10.2762 34.4426 10.28 34.3938 10.2825V10.2837Z" fill="#94D1BE"></path><path d="M40.4825 26.545C40.4087 25.6362 40.2675 24.74 40.0187 23.8612C39.5825 22.3225 38.8887 20.91 37.9362 19.6262C37.5375 19.0887 36.7287 19.1475 36.395 19.7225C36.26 19.9562 36.265 20.2062 36.3025 20.4612C36.3212 20.6225 36.3862 20.76 36.4875 20.8887C36.6287 21.07 36.75 21.265 36.8725 21.4587C38.2562 23.6412 38.7912 26.025 38.5025 28.5837C38.24 30.9075 37.2887 32.9425 35.8025 34.7375C35.5562 35.035 35.2612 35.2937 35.0612 35.63L35.0537 35.6375C35.0237 35.6725 34.9962 35.7112 34.9625 35.7437C32.3862 38.2362 29.2862 39.5875 25.7412 39.965C25.5675 40.0175 25.385 39.9487 25.2125 40.0037C25.1675 40.0062 25.1212 40.0087 25.0762 40.0112C24.8162 40.0887 24.5487 40.0537 24.285 40.0525C23.9275 40.0525 23.5675 40.0937 23.2125 40.0112C20.8162 39.8662 18.5687 39.2187 16.4962 37.9975C15.745 37.555 15.03 37.06 14.4012 36.4475C14.39 36.425 14.3787 36.4025 14.3675 36.38C14.0462 36.0187 13.6862 35.6975 13.3675 35.3325C12.5212 34.3625 11.84 33.29 11.3637 32.0962C10.7225 30.49 10.4675 28.8237 10.6187 27.0937C10.7512 25.58 11.1712 24.1575 11.8787 22.8175C11.9262 22.7275 11.9825 22.6387 11.995 22.5337C11.995 22.5212 11.995 22.5087 11.995 22.4962C12.2487 21.965 12.59 21.4912 12.9387 21.0212C13.2687 20.5775 13.2062 20.0087 12.7887 19.69C12.36 19.3625 11.7925 19.4575 11.4537 19.9162C10.9362 20.6162 10.4737 21.3512 10.0825 22.1312C9.24125 23.8062 8.77 25.5762 8.6625 27.4462V27.4487C8.6625 27.45 8.66 27.45 8.66 27.45C8.6575 27.45 8.655 27.7637 8.65125 28.5462C8.65375 28.5462 8.65625 28.5462 8.6575 28.5462C8.66 28.5462 8.66125 28.5487 8.66125 28.55C8.7575 30.4825 9.24749 32.31 10.155 34.0187C11.245 36.0725 12.775 37.74 14.6937 39.0437C17.25 40.78 20.0912 41.6837 23.1687 41.8662C23.1737 41.8787 23.18 41.8912 23.1862 41.9037C23.2137 41.9062 23.2412 41.9087 23.2687 41.91H25.0762C25.105 41.91 25.1337 41.9075 25.1625 41.905C25.1687 41.8925 25.1737 41.88 25.1775 41.8675C26.2162 41.815 27.24 41.6575 28.2512 41.4212C29.8962 41.0362 31.4562 40.4337 32.9212 39.5925C32.9237 39.5925 32.925 39.59 32.9275 39.5887C33.32 39.3637 33.7837 39.3012 34.2175 39.4287L38.8887 40.7987C39.1737 40.8825 39.4375 40.6175 39.3537 40.3337L38.0725 35.9637C37.9387 35.5087 38.0062 35.0162 38.265 34.6212C38.8925 33.6637 39.4 32.6412 39.78 31.55C40.3412 29.9362 40.4537 28.6137 40.4862 28.1187C40.5112 27.73 40.5275 27.1912 40.4875 26.5475L40.4825 26.545Z" fill="#00AAD9"></path></svg>