<svg width="80" height="80" viewBox="0 0 80 80" fill="none" xmlns="http://www.w3.org/2000/svg">
<rect x="0.5" y="0.5" width="79" height="79" rx="19.5" fill="#264DE4"/>
<path d="M66.4531 10L61.6327 63.9945L39.9681 70L18.3619 64.0018L13.547 10H66.4531Z" fill="#264DE4"/>
<path d="M57.5069 60.5561L61.6254 14.4157H39.9991V65.4093L57.5051 60.5561H57.5069Z" fill="#2965F1"/>
<path d="M24.5844 34.4449L25.1787 41.0684H40.001V34.4449H24.5844ZM39.9991 21.0392H23.392L23.9937 27.6627H39.9991V21.0392ZM39.9991 58.5378V51.6463L39.97 51.6536L32.5935 49.6627L32.1213 44.381H25.4722L26.4002 54.7803L39.9681 58.5469L39.9991 58.5378Z" fill="#EBEBEB"/>
<path d="M48.1322 41.0684L47.3629 49.6591L39.9754 51.6536V58.5451L53.5543 54.7821L55.2115 36.2261L55.3738 34.4467L56.5698 21.041H39.9791V27.6645H49.3118L48.7083 34.4467H39.9791V41.0702H48.1341L48.1322 41.0684Z" fill="white"/>
<rect x="0.5" y="0.5" width="79" height="79" rx="19.5" stroke="#373737"/>
</svg>
