<svg width="80" height="80" viewBox="0 0 80 80" fill="none" xmlns="http://www.w3.org/2000/svg">
<rect x="0.5" y="0.5" width="79" height="79" rx="19.5" fill="#E44D26"/>
<path d="M18.3624 64.0026L13.5479 10H66.4522L61.6319 63.9939L39.9672 70L18.3624 64.0026Z" fill="#E44D26"/>
<path d="M40.0008 65.4086L57.5072 60.5547L61.626 14.4149H40.0008V65.4086Z" fill="#F16529"/>
<path d="M40.0008 34.4446H31.2366L30.6313 27.6625H40.0008V21.0394H23.3928L25.1794 41.0676H40.0008V34.4446ZM40.0008 51.6462L39.9716 51.6535L32.5959 49.6611L32.1248 44.3784H25.477L26.4046 54.7776L39.9716 58.5434L40.0022 58.5347V51.6432L40.0008 51.6462Z" fill="#EBEBEB"/>
<path d="M39.9774 34.4446V41.0676H48.1334L47.3648 49.6568L39.9774 51.6505V58.5405L53.5547 54.7776L55.2101 36.2225L55.372 34.4446H39.976H39.9774ZM39.9774 21.0394V27.6625H55.9758L56.5694 21.0394H39.9774Z" fill="white"/>
<rect x="0.5" y="0.5" width="79" height="79" rx="19.5" stroke="#373737"/>
</svg>
