<svg width="80" height="80" viewBox="0 0 80 80" fill="none" xmlns="http://www.w3.org/2000/svg">
<rect x="0.5" y="0.5" width="79" height="79" rx="19.5" fill="#F7DF1E"/>
<path d="M10 10H70V70H10V10Z" fill="#F7DF1E"/>
<path d="M25.7762 60.14L30.3676 57.3619C31.2533 58.9324 32.059 60.261 33.9924 60.261C35.9257 60.261 37.0133 59.5362 37.0133 56.7171V37.5457H42.6514V56.7971C42.6514 62.6371 39.2286 65.2952 34.2343 65.2952C29.7238 65.2952 27.1048 62.959 25.7762 60.14ZM45.7143 59.5362L50.3057 56.8781C51.5143 58.8514 53.0848 60.3019 55.8638 60.3019C58.2 60.3019 59.6895 59.1333 59.6895 57.5229C59.6895 55.5895 58.159 54.9048 55.5819 53.7771L54.1724 53.1724C50.1038 51.441 47.4057 49.2676 47.4057 44.6743C47.4057 40.4457 50.6276 37.2238 55.6619 37.2238C59.2467 37.2238 61.8248 38.4724 63.6771 41.7343L59.2867 44.5533C58.32 42.8219 57.2733 42.1371 55.6619 42.1371C54.0505 42.1371 52.9638 43.1848 52.9638 44.5533C52.9638 46.2457 54.0114 46.9343 56.4276 47.9771L57.8371 48.5819C62.6295 50.6352 65.3286 52.7295 65.3286 57.439C65.3286 62.5143 61.341 65.2924 55.9848 65.2924C50.6286 65.2924 47.3657 62.7962 45.7143 59.5333" fill="black"/>
<rect x="0.5" y="0.5" width="79" height="79" rx="19.5" stroke="#373737"/>
</svg>
